<svg xmlns="http://www.w3.org/2000/svg" xmlns:xlink="http://www.w3.org/1999/xlink" width="500" zoomAndPan="magnify" viewBox="0 0 375 374.999991" height="500" preserveAspectRatio="xMidYMid meet" version="1.0"><defs><g/><clipPath id="d3469d6195"><path d="M 89.914062 210.816406 L 182.804688 210.816406 L 182.804688 221.148438 L 89.914062 221.148438 Z M 89.914062 210.816406 " clip-rule="nonzero"/></clipPath><clipPath id="22081c109d"><path d="M 194.894531 152.109375 L 287.789062 152.109375 L 287.789062 162.4375 L 194.894531 162.4375 Z M 194.894531 152.109375 " clip-rule="nonzero"/></clipPath></defs><g clip-path="url(#d3469d6195)"><path fill="#ffffff" d="M 89.914062 210.816406 L 182.800781 210.816406 L 182.800781 221.148438 L 89.914062 221.148438 Z M 89.914062 210.816406 " fill-opacity="1" fill-rule="nonzero"/></g><g clip-path="url(#22081c109d)"><path fill="#ffffff" d="M 194.894531 152.109375 L 287.785156 152.109375 L 287.785156 162.4375 L 194.894531 162.4375 Z M 194.894531 152.109375 " fill-opacity="1" fill-rule="nonzero"/></g><g fill="#ffffff" fill-opacity="1"><g transform="translate(116.4085, 192.370037)"><g><path d="M 5.03125 0 L 5.03125 -41.984375 L 21.46875 -41.984375 C 24.875 -41.984375 27.816406 -41.363281 30.296875 -40.125 C 32.773438 -38.882812 34.703125 -37.125 36.078125 -34.84375 C 37.460938 -32.570312 38.15625 -29.894531 38.15625 -26.8125 C 38.15625 -23.769531 37.460938 -21.109375 36.078125 -18.828125 C 34.703125 -16.554688 32.773438 -14.800781 30.296875 -13.5625 C 27.816406 -12.320312 24.875 -11.703125 21.46875 -11.703125 L 14.578125 -11.703125 L 14.578125 0 Z M 14.515625 -19.921875 L 20.6875 -19.921875 C 23.164062 -19.921875 25.078125 -20.507812 26.421875 -21.6875 C 27.765625 -22.863281 28.4375 -24.550781 28.4375 -26.75 C 28.4375 -28.945312 27.765625 -30.644531 26.421875 -31.84375 C 25.078125 -33.050781 23.164062 -33.65625 20.6875 -33.65625 L 14.515625 -33.65625 Z M 14.515625 -19.921875 "/></g></g></g><g fill="#ffffff" fill-opacity="1"><g transform="translate(224.726503, 220.874386)"><g><path d="M 5.03125 0 L 5.03125 -41.984375 L 23.8125 -41.984375 C 28.09375 -41.984375 31.492188 -40.960938 34.015625 -38.921875 C 36.535156 -36.890625 37.796875 -34.15625 37.796875 -30.71875 C 37.796875 -28.75 37.351562 -26.960938 36.46875 -25.359375 C 35.59375 -23.765625 34.351562 -22.507812 32.75 -21.59375 C 34.75 -20.71875 36.296875 -19.414062 37.390625 -17.6875 C 38.492188 -15.96875 39.046875 -13.988281 39.046875 -11.75 C 39.046875 -9.394531 38.445312 -7.335938 37.25 -5.578125 C 36.050781 -3.816406 34.378906 -2.445312 32.234375 -1.46875 C 30.097656 -0.488281 27.613281 0 24.78125 0 Z M 14.453125 -7.5625 L 23.328125 -7.5625 C 25.210938 -7.5625 26.671875 -8 27.703125 -8.875 C 28.742188 -9.757812 29.265625 -11 29.265625 -12.59375 C 29.265625 -14.195312 28.742188 -15.4375 27.703125 -16.3125 C 26.671875 -17.195312 25.210938 -17.640625 23.328125 -17.640625 L 14.453125 -17.640625 Z M 14.453125 -24.890625 L 22.375 -24.890625 C 24.21875 -24.890625 25.628906 -25.304688 26.609375 -26.140625 C 27.585938 -26.984375 28.078125 -28.164062 28.078125 -29.6875 C 28.078125 -31.207031 27.585938 -32.378906 26.609375 -33.203125 C 25.628906 -34.023438 24.21875 -34.4375 22.375 -34.4375 L 14.453125 -34.4375 Z M 14.453125 -24.890625 "/></g></g></g></svg>