<svg xmlns="http://www.w3.org/2000/svg" xmlns:xlink="http://www.w3.org/1999/xlink" width="500" zoomAndPan="magnify" viewBox="0 0 375 374.999991" height="500" preserveAspectRatio="xMidYMid meet" version="1.0"><defs><g/><clipPath id="21cc0fdc35"><path d="M 8.554688 229.675781 L 176.566406 229.675781 L 176.566406 248.359375 L 8.554688 248.359375 Z M 8.554688 229.675781 " clip-rule="nonzero"/></clipPath><clipPath id="703f62786b"><path d="M 198.433594 123.488281 L 366.445312 123.488281 L 366.445312 142.171875 L 198.433594 142.171875 Z M 198.433594 123.488281 " clip-rule="nonzero"/></clipPath></defs><rect x="-37.5" width="450" fill="#ffffff" y="-37.499999" height="449.999989" fill-opacity="1"/><rect x="-37.5" width="450" fill="#000000" y="-37.499999" height="449.999989" fill-opacity="1"/><g clip-path="url(#21cc0fdc35)"><path fill="#ffffff" d="M 8.554688 229.675781 L 176.558594 229.675781 L 176.558594 248.359375 L 8.554688 248.359375 Z M 8.554688 229.675781 " fill-opacity="1" fill-rule="nonzero"/></g><g clip-path="url(#703f62786b)"><path fill="#ffffff" d="M 198.433594 123.488281 L 366.4375 123.488281 L 366.4375 142.171875 L 198.433594 142.171875 Z M 198.433594 123.488281 " fill-opacity="1" fill-rule="nonzero"/></g><g fill="#ffffff" fill-opacity="1"><g transform="translate(56.476993, 196.308257)"><g><path d="M 9.109375 0 L 9.109375 -75.953125 L 38.84375 -75.953125 C 44.988281 -75.953125 50.300781 -74.828125 54.78125 -72.578125 C 59.269531 -70.335938 62.757812 -67.15625 65.25 -63.03125 C 67.75 -58.914062 69 -54.070312 69 -48.5 C 69 -43 67.75 -38.1875 65.25 -34.0625 C 62.757812 -29.945312 59.269531 -26.765625 54.78125 -24.515625 C 50.300781 -22.273438 44.988281 -21.15625 38.84375 -21.15625 L 26.359375 -21.15625 L 26.359375 0 Z M 26.25 -36.015625 L 37.4375 -36.015625 C 41.914062 -36.015625 45.363281 -37.082031 47.78125 -39.21875 C 50.207031 -41.351562 51.421875 -44.410156 51.421875 -48.390625 C 51.421875 -52.367188 50.207031 -55.441406 47.78125 -57.609375 C 45.363281 -59.785156 41.914062 -60.875 37.4375 -60.875 L 26.25 -60.875 Z M 26.25 -36.015625 "/></g></g></g><g fill="#ffffff" fill-opacity="1"><g transform="translate(252.387293, 247.862925)"><g><path d="M 9.109375 0 L 9.109375 -75.953125 L 43.078125 -75.953125 C 50.816406 -75.953125 56.960938 -74.109375 61.515625 -70.421875 C 66.078125 -66.734375 68.359375 -61.773438 68.359375 -55.546875 C 68.359375 -52.003906 67.5625 -48.785156 65.96875 -45.890625 C 64.375 -43.003906 62.128906 -40.726562 59.234375 -39.0625 C 62.859375 -37.46875 65.664062 -35.113281 67.65625 -32 C 69.644531 -28.894531 70.640625 -25.316406 70.640625 -21.265625 C 70.640625 -16.992188 69.550781 -13.265625 67.375 -10.078125 C 65.207031 -6.898438 62.1875 -4.425781 58.3125 -2.65625 C 54.445312 -0.882812 49.945312 0 44.8125 0 Z M 26.15625 -13.671875 L 42.203125 -13.671875 C 45.609375 -13.671875 48.25 -14.460938 50.125 -16.046875 C 52.007812 -17.640625 52.953125 -19.882812 52.953125 -22.78125 C 52.953125 -25.675781 52.007812 -27.921875 50.125 -29.515625 C 48.25 -31.109375 45.609375 -31.90625 42.203125 -31.90625 L 26.15625 -31.90625 Z M 26.15625 -45.03125 L 40.46875 -45.03125 C 43.800781 -45.03125 46.351562 -45.785156 48.125 -47.296875 C 49.894531 -48.816406 50.78125 -50.953125 50.78125 -53.703125 C 50.78125 -56.453125 49.894531 -58.566406 48.125 -60.046875 C 46.351562 -61.535156 43.800781 -62.28125 40.46875 -62.28125 L 26.15625 -62.28125 Z M 26.15625 -45.03125 "/></g></g></g></svg>